HIERARCHY
ROOT Hips
{
 OFFSET 0.000000 0.000000 0.000000
 CHANNELS 6 Xposition Yposition Zposition Yrotation Xrotation Zrotation
 JOINT Chest
 {
  OFFSET 0.000000 9.585900 0.002600
  CHANNELS 3 Yrotation Xrotation Zrotation
  JOINT Chest2
  {
   OFFSET 0.000000 9.601200 -0.005300
   CHANNELS 3 Yrotation Xrotation Zrotation
   JOINT Chest3
   {
    OFFSET 0.000000 9.561800 0.000000
    CHANNELS 3 Yrotation Xrotation Zrotation
    JOINT Chest4
    {
     OFFSET 0.000000 9.552100 0.000000
     CHANNELS 3 Yrotation Xrotation Zrotation
     JOINT Neck
     {
      OFFSET 0.000000 14.453000 0.000000
      CHANNELS 3 Yrotation Xrotation Zrotation
      JOINT Head
      {
       OFFSET 0.000000 8.936500 -0.011300
       CHANNELS 3 Yrotation Xrotation Zrotation
       End Site
       {
        OFFSET 0.000000 17.073600 -0.006000
       }
      }
     }
     JOINT RightCollar
     {
      OFFSET -2.921100 9.558500 0.000000
      CHANNELS 3 Yrotation Xrotation Zrotation
      JOINT RightShoulder
      {
       OFFSET -13.519700 0.000000 0.000000
       CHANNELS 3 Yrotation Xrotation Zrotation
       JOINT RightElbow
       {
        OFFSET 0.000000 -29.696600 0.000000
        CHANNELS 3 Yrotation Xrotation Zrotation
        JOINT RightWrist
        {
         OFFSET 0.000000 -24.004700 0.000000
         CHANNELS 3 Yrotation Xrotation Zrotation
         End Site
         {
          OFFSET 0.000000 -17.728500 0.000000
         }
        }
       }
      }
     }
     JOINT LeftCollar
     {
      OFFSET 2.921100 9.558500 0.000000
      CHANNELS 3 Yrotation Xrotation Zrotation
      JOINT LeftShoulder
      {
       OFFSET 13.519700 0.000000 0.000000
       CHANNELS 3 Yrotation Xrotation Zrotation
       JOINT LeftElbow
       {
        OFFSET 0.000000 -29.696600 0.000000
        CHANNELS 3 Yrotation Xrotation Zrotation
        JOINT LeftWrist
        {
         OFFSET 0.000000 -24.004700 0.000000
         CHANNELS 3 Yrotation Xrotation Zrotation
         End Site
         {
          OFFSET 0.000000 -17.728500 0.000000
         }
        }
       }
      }
     }
    }
   }
  }
 }
 JOINT RightHip
 {
  OFFSET -7.771700 -0.012900 -0.001300
  CHANNELS 3 Yrotation Xrotation Zrotation
  JOINT RightKnee
  {
   OFFSET 0.000000 -40.869800 0.001200
   CHANNELS 3 Yrotation Xrotation Zrotation
   JOINT RightAnkle
   {
    OFFSET 0.000000 -39.717900 0.002100
    CHANNELS 3 Yrotation Xrotation Zrotation
    JOINT RightToe
    {
     OFFSET 0.000000 -4.965400 11.033500
     CHANNELS 3 Yrotation Xrotation Zrotation
     End Site
     {
      OFFSET 0.000000 -1.423100 5.872300
     }
    }
   }
  }
 }
 JOINT LeftHip
 {
  OFFSET 7.771700 -0.012900 -0.001300
  CHANNELS 3 Yrotation Xrotation Zrotation
  JOINT LeftKnee
  {
   OFFSET 0.000000 -40.869800 0.001200
   CHANNELS 3 Yrotation Xrotation Zrotation
   JOINT LeftAnkle
   {
    OFFSET 0.000000 -39.717900 0.002100
    CHANNELS 3 Yrotation Xrotation Zrotation
    JOINT LeftToe
    {
     OFFSET 0.000000 -4.965400 11.033500
     CHANNELS 3 Yrotation Xrotation Zrotation
     End Site
     {
      OFFSET 0.000000 -1.423100 5.872300
     }
    }
   }
  }
 }
}
MOTION
Frames: 8
Frame Time: 0.008333
0.000000 85.388000 0.000000 0.000000 -5.767877 0.000000 0.000000 11.653817 0.000000 0.000000 -5.885947 0.000000 0.000000 -0.000000 0.000000 0.000000 -0.000000 0.000000 0.000000 12.528835 0.000000 0.000000 0.711642 0.000000 0.000000 -0.000000 0.000000 0.000000 0.000000 -90.000000 0.000000 -2.309062 0.000000 0.000000 2.309062 0.000000 0.000000 -0.000000 0.000000 0.000000 -0.000000 90.000000 0.000000 -2.309062 0.000000 0.000000 2.309062 0.000000 0.000000 8.520406 0.000000 0.000000 1.905762 0.000000 -0.000000 -4.658285 0.000000 0.000000 -0.000000 0.000000 0.000000 8.520406 0.000000 0.000000 1.905762 0.000000 -0.000000 -4.658285 0.000000 0.000000 -0.000000 0.000000
-7.730252 55.241527 -25.729750 179.616879 -17.034577 -1.542876 0.826609 15.376643 0.841057 0.067168 1.443719 0.080767 0.114048 2.426830 0.136726 0.732563 13.693440 0.849781 2.519034 16.279928 0.354341 2.564281 -8.614025 -0.199287 -0.327144 3.615619 0.990769 2.517205 -9.163492 -7.591331 -70.536627 -55.248591 104.477131 -13.863390 13.643070 -5.385241 -6.233564 0.710092 3.480547 2.416903 -12.335398 5.723577 53.198274 -48.475741 -94.103475 10.093909 -4.586791 8.777982 -0.567996 -57.709167 12.889124 -99.470825 88.153085 -104.244500 -10.212220 -21.536029 14.824334 0.010779 -0.040503 0.011188 10.383259 -54.662063 -5.814292 113.595225 77.257494 111.677309 -6.716661 -23.685306 0.818130 0.039907 0.180598 0.032987
-7.730319 55.241974 -25.727704 179.619759 -17.044616 -1.546629 0.841018 15.366817 0.855184 0.068423 1.443989 0.081301 0.116201 2.427223 0.137708 0.727345 13.702316 0.849243 2.630578 16.400014 0.361030 2.663561 -8.473989 -0.216016 -0.325156 3.639035 0.995502 2.499812 -9.158983 -7.587232 -70.615496 -55.253496 104.544811 -13.864358 13.674109 -5.382759 -6.179856 0.728801 3.491803 2.364028 -12.353413 5.707979 53.213793 -48.505698 -94.121347 10.086994 -4.576161 8.771198 -0.581312 -57.698256 12.889290 -99.404298 88.159687 -104.184384 -10.164745 -21.535479 14.814756 0.008197 -0.043973 0.009245 10.387173 -54.654125 -5.812299 113.587803 77.260841 111.677126 -6.722731 -23.680775 0.816919 0.046601 0.178466 0.033471
-7.731995 55.242744 -25.725886 179.624659 -17.059121 -1.542190 0.852573 15.362979 0.859559 0.069895 1.444570 0.082058 0.118702 2.428241 0.139045 0.721175 13.710744 0.849700 2.737459 16.513969 0.367787 2.754769 -8.342336 -0.231642 -0.315028 3.667990 1.004912 2.471181 -9.163193 -7.589846 -70.678153 -55.253661 104.598785 -13.868921 13.695446 -5.347819 -6.181674 0.741546 3.492476 2.365691 -12.362007 5.702157 53.219017 -48.521389 -94.120267 10.079545 -4.560303 8.763397 -0.604791 -57.681031 12.895965 -99.355418 88.160006 -104.149786 -10.165542 -21.531819 14.814245 0.046231 -0.040186 0.012046 10.396080 -54.637253 -5.820822 113.558737 77.265061 111.646663 -6.720717 -23.678169 0.816653 0.046519 0.179638 0.034656
-7.732714 55.244654 -25.726673 179.634851 -17.091718 -1.545784 0.863771 15.379506 0.870592 0.071326 1.445579 0.083070 0.121147 2.429829 0.140741 0.734561 13.707069 0.858400 2.815770 16.632080 0.372661 2.836642 -8.220471 -0.246357 -0.317081 3.713283 1.015649 2.436261 -9.185795 -7.602010 -70.717486 -55.242452 104.620703 -13.868037 13.706962 -5.323088 -6.205621 0.763660 3.489225 2.374471 -12.366138 5.693223 53.217210 -48.534575 -94.110492 10.080306 -4.545919 8.744750 -0.629094 -57.643893 12.909307 -99.277836 88.157661 -104.077649 -10.202413 -21.525239 14.821751 0.013701 -0.038989 0.009944 10.387364 -54.603017 -5.811904 113.536048 77.271503 111.625058 -6.717846 -23.676691 0.808658 0.046488 0.178466 0.038393
-7.734919 55.245754 -25.724156 179.645057 -17.103935 -1.541419 0.862717 15.384671 0.868130 0.081911 1.441099 0.087212 0.112249 2.435871 0.138334 0.762558 13.703830 0.872957 2.882293 16.737823 0.375260 2.909530 -8.108361 -0.260632 -0.326749 3.747387 1.020932 2.401787 -9.185174 -7.597893 -70.789630 -55.232033 104.661512 -13.854019 13.725026 -5.298631 -6.196393 0.813136 3.496650 2.361392 -12.396762 5.665492 53.208478 -48.550331 -94.115547 10.076714 -4.539350 8.738458 -0.635978 -57.631938 12.917624 -99.082327 88.142938 -103.871121 -10.347372 -21.506254 14.844973 0.007301 -0.030952 0.013901 10.392705 -54.588162 -5.821388 113.491251 77.275103 111.576582 -6.724760 -23.668492 0.814608 0.043860 0.177824 0.036514
-7.736084 55.247413 -25.722710 179.646400 -17.122324 -1.541267 0.871573 15.395896 0.872975 0.091305 1.439262 0.092922 0.104465 2.439562 0.134274 0.827070 13.703572 0.908820 2.901301 16.835274 0.365922 2.973560 -8.005885 -0.274092 -0.370756 3.779317 1.014215 2.361801 -9.154427 -7.585580 -70.868373 -55.262887 104.746430 -13.881041 13.691948 -5.328021 -6.243741 0.845423 3.486213 2.411083 -12.362893 5.611165 53.198584 -48.615128 -94.163261 10.053701 -4.522108 8.779334 -0.644962 -57.612204 12.940372 -98.764916 88.124885 -103.540355 -10.495353 -21.488538 14.867240 0.001347 -0.022118 0.016601 10.395554 -54.568065 -5.818340 113.474290 77.279756 111.562282 -6.731081 -23.666182 0.815900 0.047363 0.178228 0.037992
-7.736602 55.248952 -25.720403 179.645522 -17.133634 -1.544768 0.907502 15.387784 0.902697 0.071301 1.452403 0.083481 0.112995 2.439794 0.137058 0.838170 13.710990 0.923490 2.953209 16.919793 0.365799 3.029810 -7.912876 -0.286067 -0.374203 3.807817 1.015730 2.333066 -9.176718 -7.598007 -70.893131 -55.248074 104.748315 -13.888207 13.674323 -5.360349 -6.247952 0.873588 3.484163 2.427233 -12.350966 5.570144 53.207952 -48.659397 -94.168227 10.047407 -4.499866 8.793972 -0.659647 -57.597218 12.945581 -98.554892 88.127068 -103.343331 -10.440478 -21.490504 14.862723 -0.022119 -0.027506 0.009416 10.395069 -54.556188 -5.810266 113.457131 77.283449 111.546610 -6.729018 -23.665209 0.812799 0.050509 0.178158 0.038032
